<mxfile host="app.diagrams.net" modified="2020-07-07T11:59:50.541Z" agent="5.0 (Windows NT 10.0; Win64; x64) AppleWebKit/537.36 (KHTML, like Gecko) Chrome/83.0.4103.116 Safari/537.36" etag="4rXhgeWWVocbWieamhXx" version="13.0.9" type="github">
  <diagram id="o7Jhs26MrK7T2KlIE4JG" name="Page-1">
    <mxGraphModel dx="1813" dy="1831" grid="1" gridSize="10" guides="1" tooltips="1" connect="1" arrows="1" fold="1" page="1" pageScale="1" pageWidth="827" pageHeight="1169" math="0" shadow="0">
      <root>
        <mxCell id="0" />
        <mxCell id="1" parent="0" />
        <mxCell id="jTHDJD86nA3Bd8Cu8bMh-1" value="tags" style="swimlane;fontStyle=0;childLayout=stackLayout;horizontal=1;startSize=26;fillColor=#e0e0e0;horizontalStack=0;resizeParent=1;resizeParentMax=0;resizeLast=0;collapsible=1;marginBottom=0;swimlaneFillColor=#ffffff;align=center;fontSize=14;" vertex="1" parent="1">
          <mxGeometry x="170" y="-50" width="140" height="52" as="geometry" />
        </mxCell>
        <mxCell id="jTHDJD86nA3Bd8Cu8bMh-2" value="value:text" style="text;strokeColor=none;fillColor=none;spacingLeft=4;spacingRight=4;overflow=hidden;rotatable=0;points=[[0,0.5],[1,0.5]];portConstraint=eastwest;fontSize=12;" vertex="1" parent="jTHDJD86nA3Bd8Cu8bMh-1">
          <mxGeometry y="26" width="140" height="26" as="geometry" />
        </mxCell>
        <mxCell id="jTHDJD86nA3Bd8Cu8bMh-3" value="posts" style="swimlane;fontStyle=0;childLayout=stackLayout;horizontal=1;startSize=26;fillColor=#e1d5e7;horizontalStack=0;resizeParent=1;resizeParentMax=0;resizeLast=0;collapsible=1;marginBottom=0;swimlaneFillColor=#ffffff;align=center;fontSize=14;strokeColor=#9673a6;" vertex="1" parent="1">
          <mxGeometry x="170" y="130" width="140" height="130" as="geometry" />
        </mxCell>
        <mxCell id="jTHDJD86nA3Bd8Cu8bMh-4" value="postid: int4" style="text;strokeColor=none;fillColor=none;spacingLeft=4;spacingRight=4;overflow=hidden;rotatable=0;points=[[0,0.5],[1,0.5]];portConstraint=eastwest;fontSize=12;" vertex="1" parent="jTHDJD86nA3Bd8Cu8bMh-3">
          <mxGeometry y="26" width="140" height="26" as="geometry" />
        </mxCell>
        <mxCell id="jTHDJD86nA3Bd8Cu8bMh-5" value="creationdate: timestamp" style="text;strokeColor=none;fillColor=none;spacingLeft=4;spacingRight=4;overflow=hidden;rotatable=0;points=[[0,0.5],[1,0.5]];portConstraint=eastwest;fontSize=12;" vertex="1" parent="jTHDJD86nA3Bd8Cu8bMh-3">
          <mxGeometry y="52" width="140" height="26" as="geometry" />
        </mxCell>
        <mxCell id="jTHDJD86nA3Bd8Cu8bMh-6" value="score: int4" style="text;strokeColor=none;fillColor=none;spacingLeft=4;spacingRight=4;overflow=hidden;rotatable=0;points=[[0,0.5],[1,0.5]];portConstraint=eastwest;fontSize=12;" vertex="1" parent="jTHDJD86nA3Bd8Cu8bMh-3">
          <mxGeometry y="78" width="140" height="26" as="geometry" />
        </mxCell>
        <mxCell id="jTHDJD86nA3Bd8Cu8bMh-7" value="body: text" style="text;strokeColor=none;fillColor=none;spacingLeft=4;spacingRight=4;overflow=hidden;rotatable=0;points=[[0,0.5],[1,0.5]];portConstraint=eastwest;fontSize=12;" vertex="1" parent="jTHDJD86nA3Bd8Cu8bMh-3">
          <mxGeometry y="104" width="140" height="26" as="geometry" />
        </mxCell>
        <mxCell id="jTHDJD86nA3Bd8Cu8bMh-8" value="markings" style="swimlane;fontStyle=0;childLayout=stackLayout;horizontal=1;startSize=26;fillColor=#e0e0e0;horizontalStack=0;resizeParent=1;resizeParentMax=0;resizeLast=0;collapsible=1;marginBottom=0;swimlaneFillColor=#ffffff;align=center;fontSize=14;" vertex="1" parent="1">
          <mxGeometry x="760" y="130" width="140" height="52" as="geometry" />
        </mxCell>
        <mxCell id="jTHDJD86nA3Bd8Cu8bMh-9" value="markingid: int4" style="text;strokeColor=none;fillColor=none;spacingLeft=4;spacingRight=4;overflow=hidden;rotatable=0;points=[[0,0.5],[1,0.5]];portConstraint=eastwest;fontSize=12;" vertex="1" parent="jTHDJD86nA3Bd8Cu8bMh-8">
          <mxGeometry y="26" width="140" height="26" as="geometry" />
        </mxCell>
        <mxCell id="jTHDJD86nA3Bd8Cu8bMh-10" value="annotations" style="swimlane;fontStyle=0;childLayout=stackLayout;horizontal=1;startSize=26;fillColor=#e0e0e0;horizontalStack=0;resizeParent=1;resizeParentMax=0;resizeLast=0;collapsible=1;marginBottom=0;swimlaneFillColor=#ffffff;align=center;fontSize=14;" vertex="1" parent="1">
          <mxGeometry x="760" y="-50" width="140" height="78" as="geometry" />
        </mxCell>
        <mxCell id="jTHDJD86nA3Bd8Cu8bMh-11" value="annotationid: int4" style="text;strokeColor=none;fillColor=none;spacingLeft=4;spacingRight=4;overflow=hidden;rotatable=0;points=[[0,0.5],[1,0.5]];portConstraint=eastwest;fontSize=12;" vertex="1" parent="jTHDJD86nA3Bd8Cu8bMh-10">
          <mxGeometry y="26" width="140" height="26" as="geometry" />
        </mxCell>
        <mxCell id="jTHDJD86nA3Bd8Cu8bMh-12" value="body: text" style="text;strokeColor=none;fillColor=none;spacingLeft=4;spacingRight=4;overflow=hidden;rotatable=0;points=[[0,0.5],[1,0.5]];portConstraint=eastwest;fontSize=12;" vertex="1" parent="jTHDJD86nA3Bd8Cu8bMh-10">
          <mxGeometry y="52" width="140" height="26" as="geometry" />
        </mxCell>
        <mxCell id="jTHDJD86nA3Bd8Cu8bMh-13" style="edgeStyle=none;rounded=0;orthogonalLoop=1;jettySize=auto;html=1;exitX=0.5;exitY=0;exitDx=0;exitDy=0;entryX=0.224;entryY=1.054;entryDx=0;entryDy=0;entryPerimeter=0;" edge="1" parent="1" source="jTHDJD86nA3Bd8Cu8bMh-14" target="jTHDJD86nA3Bd8Cu8bMh-7">
          <mxGeometry relative="1" as="geometry" />
        </mxCell>
        <mxCell id="jTHDJD86nA3Bd8Cu8bMh-14" value="questions" style="swimlane;fontStyle=0;childLayout=stackLayout;horizontal=1;startSize=26;fillColor=#ffe6cc;horizontalStack=0;resizeParent=1;resizeParentMax=0;resizeLast=0;collapsible=1;marginBottom=0;swimlaneFillColor=#ffffff;align=center;fontSize=14;strokeColor=#d79b00;" vertex="1" parent="1">
          <mxGeometry x="-0.9400000000000013" y="300" width="140" height="130" as="geometry" />
        </mxCell>
        <mxCell id="jTHDJD86nA3Bd8Cu8bMh-15" value="questionid: int4" style="text;strokeColor=none;fillColor=none;spacingLeft=4;spacingRight=4;overflow=hidden;rotatable=0;points=[[0,0.5],[1,0.5]];portConstraint=eastwest;fontSize=12;" vertex="1" parent="jTHDJD86nA3Bd8Cu8bMh-14">
          <mxGeometry y="26" width="140" height="26" as="geometry" />
        </mxCell>
        <mxCell id="jTHDJD86nA3Bd8Cu8bMh-16" value="title: text" style="text;strokeColor=none;fillColor=none;spacingLeft=4;spacingRight=4;overflow=hidden;rotatable=0;points=[[0,0.5],[1,0.5]];portConstraint=eastwest;fontSize=12;" vertex="1" parent="jTHDJD86nA3Bd8Cu8bMh-14">
          <mxGeometry y="52" width="140" height="26" as="geometry" />
        </mxCell>
        <mxCell id="jTHDJD86nA3Bd8Cu8bMh-17" value="closeddate: timestamp" style="text;strokeColor=none;fillColor=none;spacingLeft=4;spacingRight=4;overflow=hidden;rotatable=0;points=[[0,0.5],[1,0.5]];portConstraint=eastwest;fontSize=12;" vertex="1" parent="jTHDJD86nA3Bd8Cu8bMh-14">
          <mxGeometry y="78" width="140" height="26" as="geometry" />
        </mxCell>
        <mxCell id="jTHDJD86nA3Bd8Cu8bMh-18" value="acceptedanswerid: int4" style="text;strokeColor=none;fillColor=none;spacingLeft=4;spacingRight=4;overflow=hidden;rotatable=0;points=[[0,0.5],[1,0.5]];portConstraint=eastwest;fontSize=12;" vertex="1" parent="jTHDJD86nA3Bd8Cu8bMh-14">
          <mxGeometry y="104" width="140" height="26" as="geometry" />
        </mxCell>
        <mxCell id="jTHDJD86nA3Bd8Cu8bMh-19" style="rounded=0;orthogonalLoop=1;jettySize=auto;html=1;exitX=0.5;exitY=0;exitDx=0;exitDy=0;entryX=0.786;entryY=1;entryDx=0;entryDy=0;entryPerimeter=0;" edge="1" parent="1" source="jTHDJD86nA3Bd8Cu8bMh-20" target="jTHDJD86nA3Bd8Cu8bMh-7">
          <mxGeometry relative="1" as="geometry" />
        </mxCell>
        <mxCell id="jTHDJD86nA3Bd8Cu8bMh-20" value="answers" style="swimlane;fontStyle=0;childLayout=stackLayout;horizontal=1;startSize=26;fillColor=#ffe6cc;horizontalStack=0;resizeParent=1;resizeParentMax=0;resizeLast=0;collapsible=1;marginBottom=0;swimlaneFillColor=#ffffff;align=center;fontSize=14;strokeColor=#d79b00;" vertex="1" parent="1">
          <mxGeometry x="320" y="300" width="140" height="78" as="geometry" />
        </mxCell>
        <mxCell id="jTHDJD86nA3Bd8Cu8bMh-21" value="answerid: int4" style="text;strokeColor=none;fillColor=none;spacingLeft=4;spacingRight=4;overflow=hidden;rotatable=0;points=[[0,0.5],[1,0.5]];portConstraint=eastwest;fontSize=12;" vertex="1" parent="jTHDJD86nA3Bd8Cu8bMh-20">
          <mxGeometry y="26" width="140" height="26" as="geometry" />
        </mxCell>
        <mxCell id="jTHDJD86nA3Bd8Cu8bMh-22" value="parentid: int4" style="text;strokeColor=none;fillColor=none;spacingLeft=4;spacingRight=4;overflow=hidden;rotatable=0;points=[[0,0.5],[1,0.5]];portConstraint=eastwest;fontSize=12;" vertex="1" parent="jTHDJD86nA3Bd8Cu8bMh-20">
          <mxGeometry y="52" width="140" height="26" as="geometry" />
        </mxCell>
        <mxCell id="jTHDJD86nA3Bd8Cu8bMh-23" value="stack_users" style="swimlane;fontStyle=0;childLayout=stackLayout;horizontal=1;startSize=26;fillColor=#dae8fc;horizontalStack=0;resizeParent=1;resizeParentMax=0;resizeLast=0;collapsible=1;marginBottom=0;swimlaneFillColor=#ffffff;align=center;fontSize=14;strokeColor=#6c8ebf;" vertex="1" parent="1">
          <mxGeometry x="520" y="300" width="160" height="156" as="geometry" />
        </mxCell>
        <mxCell id="jTHDJD86nA3Bd8Cu8bMh-24" value="userid: int4" style="text;strokeColor=none;fillColor=none;spacingLeft=4;spacingRight=4;overflow=hidden;rotatable=0;points=[[0,0.5],[1,0.5]];portConstraint=eastwest;fontSize=12;" vertex="1" parent="jTHDJD86nA3Bd8Cu8bMh-23">
          <mxGeometry y="26" width="160" height="26" as="geometry" />
        </mxCell>
        <mxCell id="jTHDJD86nA3Bd8Cu8bMh-25" value="usercreationdate: timestamp" style="text;strokeColor=none;fillColor=none;spacingLeft=4;spacingRight=4;overflow=hidden;rotatable=0;points=[[0,0.5],[1,0.5]];portConstraint=eastwest;fontSize=12;" vertex="1" parent="jTHDJD86nA3Bd8Cu8bMh-23">
          <mxGeometry y="52" width="160" height="26" as="geometry" />
        </mxCell>
        <mxCell id="jTHDJD86nA3Bd8Cu8bMh-26" value="userdisplayname: text" style="text;strokeColor=none;fillColor=none;spacingLeft=4;spacingRight=4;overflow=hidden;rotatable=0;points=[[0,0.5],[1,0.5]];portConstraint=eastwest;fontSize=12;" vertex="1" parent="jTHDJD86nA3Bd8Cu8bMh-23">
          <mxGeometry y="78" width="160" height="26" as="geometry" />
        </mxCell>
        <mxCell id="jTHDJD86nA3Bd8Cu8bMh-27" value="userlocation: text" style="text;strokeColor=none;fillColor=none;spacingLeft=4;spacingRight=4;overflow=hidden;rotatable=0;points=[[0,0.5],[1,0.5]];portConstraint=eastwest;fontSize=12;" vertex="1" parent="jTHDJD86nA3Bd8Cu8bMh-23">
          <mxGeometry y="104" width="160" height="26" as="geometry" />
        </mxCell>
        <mxCell id="jTHDJD86nA3Bd8Cu8bMh-28" value="userage: int4" style="text;strokeColor=none;fillColor=none;spacingLeft=4;spacingRight=4;overflow=hidden;rotatable=0;points=[[0,0.5],[1,0.5]];portConstraint=eastwest;fontSize=12;" vertex="1" parent="jTHDJD86nA3Bd8Cu8bMh-23">
          <mxGeometry y="130" width="160" height="26" as="geometry" />
        </mxCell>
        <mxCell id="jTHDJD86nA3Bd8Cu8bMh-29" value="app_users" style="swimlane;fontStyle=0;childLayout=stackLayout;horizontal=1;startSize=26;fillColor=#dae8fc;horizontalStack=0;resizeParent=1;resizeParentMax=0;resizeLast=0;collapsible=1;marginBottom=0;swimlaneFillColor=#ffffff;align=center;fontSize=14;strokeColor=#6c8ebf;" vertex="1" parent="1">
          <mxGeometry x="760" y="300" width="140" height="130" as="geometry" />
        </mxCell>
        <mxCell id="jTHDJD86nA3Bd8Cu8bMh-30" value="userid: int4" style="text;strokeColor=none;fillColor=none;spacingLeft=4;spacingRight=4;overflow=hidden;rotatable=0;points=[[0,0.5],[1,0.5]];portConstraint=eastwest;fontSize=12;" vertex="1" parent="jTHDJD86nA3Bd8Cu8bMh-29">
          <mxGeometry y="26" width="140" height="26" as="geometry" />
        </mxCell>
        <mxCell id="jTHDJD86nA3Bd8Cu8bMh-31" value="username: text" style="text;strokeColor=none;fillColor=none;spacingLeft=4;spacingRight=4;overflow=hidden;rotatable=0;points=[[0,0.5],[1,0.5]];portConstraint=eastwest;fontSize=12;" vertex="1" parent="jTHDJD86nA3Bd8Cu8bMh-29">
          <mxGeometry y="52" width="140" height="26" as="geometry" />
        </mxCell>
        <mxCell id="jTHDJD86nA3Bd8Cu8bMh-32" value="password: text" style="text;strokeColor=none;fillColor=none;spacingLeft=4;spacingRight=4;overflow=hidden;rotatable=0;points=[[0,0.5],[1,0.5]];portConstraint=eastwest;fontSize=12;" vertex="1" parent="jTHDJD86nA3Bd8Cu8bMh-29">
          <mxGeometry y="78" width="140" height="26" as="geometry" />
        </mxCell>
        <mxCell id="jTHDJD86nA3Bd8Cu8bMh-33" value="salt: text" style="text;strokeColor=none;fillColor=none;spacingLeft=4;spacingRight=4;overflow=hidden;rotatable=0;points=[[0,0.5],[1,0.5]];portConstraint=eastwest;fontSize=12;" vertex="1" parent="jTHDJD86nA3Bd8Cu8bMh-29">
          <mxGeometry y="104" width="140" height="26" as="geometry" />
        </mxCell>
        <mxCell id="jTHDJD86nA3Bd8Cu8bMh-34" style="edgeStyle=none;rounded=0;orthogonalLoop=1;jettySize=auto;html=1;exitX=0.5;exitY=0;exitDx=0;exitDy=0;entryX=0.5;entryY=1;entryDx=0;entryDy=0;shape=link;" edge="1" parent="1" source="jTHDJD86nA3Bd8Cu8bMh-35" target="jTHDJD86nA3Bd8Cu8bMh-70">
          <mxGeometry relative="1" as="geometry" />
        </mxCell>
        <mxCell id="jTHDJD86nA3Bd8Cu8bMh-35" value="comments" style="swimlane;fontStyle=0;childLayout=stackLayout;horizontal=1;startSize=26;fillColor=#fff2cc;horizontalStack=0;resizeParent=1;resizeParentMax=0;resizeLast=0;collapsible=1;marginBottom=0;swimlaneFillColor=#ffffff;align=center;fontSize=14;strokeColor=#d6b656;" vertex="1" parent="1">
          <mxGeometry x="144.5" y="456" width="191" height="130" as="geometry" />
        </mxCell>
        <mxCell id="jTHDJD86nA3Bd8Cu8bMh-36" value="commentid: int4" style="text;strokeColor=none;fillColor=none;spacingLeft=4;spacingRight=4;overflow=hidden;rotatable=0;points=[[0,0.5],[1,0.5]];portConstraint=eastwest;fontSize=12;" vertex="1" parent="jTHDJD86nA3Bd8Cu8bMh-35">
          <mxGeometry y="26" width="191" height="26" as="geometry" />
        </mxCell>
        <mxCell id="jTHDJD86nA3Bd8Cu8bMh-37" value="commentscore: int4" style="text;strokeColor=none;fillColor=none;spacingLeft=4;spacingRight=4;overflow=hidden;rotatable=0;points=[[0,0.5],[1,0.5]];portConstraint=eastwest;fontSize=12;" vertex="1" parent="jTHDJD86nA3Bd8Cu8bMh-35">
          <mxGeometry y="52" width="191" height="26" as="geometry" />
        </mxCell>
        <mxCell id="jTHDJD86nA3Bd8Cu8bMh-38" value="commenttext: text" style="text;strokeColor=none;fillColor=none;spacingLeft=4;spacingRight=4;overflow=hidden;rotatable=0;points=[[0,0.5],[1,0.5]];portConstraint=eastwest;fontSize=12;" vertex="1" parent="jTHDJD86nA3Bd8Cu8bMh-35">
          <mxGeometry y="78" width="191" height="26" as="geometry" />
        </mxCell>
        <mxCell id="jTHDJD86nA3Bd8Cu8bMh-39" value="commentcreationdate: timestamp" style="text;strokeColor=none;fillColor=none;spacingLeft=4;spacingRight=4;overflow=hidden;rotatable=0;points=[[0,0.5],[1,0.5]];portConstraint=eastwest;fontSize=12;" vertex="1" parent="jTHDJD86nA3Bd8Cu8bMh-35">
          <mxGeometry y="104" width="191" height="26" as="geometry" />
        </mxCell>
        <mxCell id="jTHDJD86nA3Bd8Cu8bMh-40" value="search_history" style="swimlane;fontStyle=0;childLayout=stackLayout;horizontal=1;startSize=26;fillColor=#e0e0e0;horizontalStack=0;resizeParent=1;resizeParentMax=0;resizeLast=0;collapsible=1;marginBottom=0;swimlaneFillColor=#ffffff;align=center;fontSize=14;" vertex="1" parent="1">
          <mxGeometry x="760" y="530" width="140" height="78" as="geometry" />
        </mxCell>
        <mxCell id="jTHDJD86nA3Bd8Cu8bMh-41" value="searchdate: timestamp" style="text;strokeColor=none;fillColor=none;spacingLeft=4;spacingRight=4;overflow=hidden;rotatable=0;points=[[0,0.5],[1,0.5]];portConstraint=eastwest;fontSize=12;" vertex="1" parent="jTHDJD86nA3Bd8Cu8bMh-40">
          <mxGeometry y="26" width="140" height="26" as="geometry" />
        </mxCell>
        <mxCell id="jTHDJD86nA3Bd8Cu8bMh-42" value="querystring:text" style="text;strokeColor=none;fillColor=none;spacingLeft=4;spacingRight=4;overflow=hidden;rotatable=0;points=[[0,0.5],[1,0.5]];portConstraint=eastwest;fontSize=12;" vertex="1" parent="jTHDJD86nA3Bd8Cu8bMh-40">
          <mxGeometry y="52" width="140" height="26" as="geometry" />
        </mxCell>
        <mxCell id="jTHDJD86nA3Bd8Cu8bMh-43" value="stopwords" style="swimlane;fontStyle=0;childLayout=stackLayout;horizontal=1;startSize=26;fillColor=#e0e0e0;horizontalStack=0;resizeParent=1;resizeParentMax=0;resizeLast=0;collapsible=1;marginBottom=0;swimlaneFillColor=#ffffff;align=center;fontSize=14;" vertex="1" parent="1">
          <mxGeometry x="500" y="692" width="140" height="52" as="geometry" />
        </mxCell>
        <mxCell id="jTHDJD86nA3Bd8Cu8bMh-44" value="word: varchar" style="text;strokeColor=none;fillColor=none;spacingLeft=4;spacingRight=4;overflow=hidden;rotatable=0;points=[[0,0.5],[1,0.5]];portConstraint=eastwest;fontSize=12;" vertex="1" parent="jTHDJD86nA3Bd8Cu8bMh-43">
          <mxGeometry y="26" width="140" height="26" as="geometry" />
        </mxCell>
        <mxCell id="jTHDJD86nA3Bd8Cu8bMh-45" value="words" style="swimlane;fontStyle=0;childLayout=stackLayout;horizontal=1;startSize=26;fillColor=#e0e0e0;horizontalStack=0;resizeParent=1;resizeParentMax=0;resizeLast=0;collapsible=1;marginBottom=0;swimlaneFillColor=#ffffff;align=center;fontSize=14;" vertex="1" parent="1">
          <mxGeometry x="110" y="690" width="200" height="208" as="geometry" />
        </mxCell>
        <mxCell id="jTHDJD86nA3Bd8Cu8bMh-46" value="word: varchar" style="text;strokeColor=none;fillColor=none;spacingLeft=4;spacingRight=4;overflow=hidden;rotatable=0;points=[[0,0.5],[1,0.5]];portConstraint=eastwest;fontSize=12;" vertex="1" parent="jTHDJD86nA3Bd8Cu8bMh-45">
          <mxGeometry y="26" width="200" height="26" as="geometry" />
        </mxCell>
        <mxCell id="jTHDJD86nA3Bd8Cu8bMh-47" value="idx: int4" style="text;strokeColor=none;fillColor=none;spacingLeft=4;spacingRight=4;overflow=hidden;rotatable=0;points=[[0,0.5],[1,0.5]];portConstraint=eastwest;fontSize=12;" vertex="1" parent="jTHDJD86nA3Bd8Cu8bMh-45">
          <mxGeometry y="52" width="200" height="26" as="geometry" />
        </mxCell>
        <mxCell id="jTHDJD86nA3Bd8Cu8bMh-48" value="tablename: varchar(post/comment)" style="text;strokeColor=none;fillColor=none;spacingLeft=4;spacingRight=4;overflow=hidden;rotatable=0;points=[[0,0.5],[1,0.5]];portConstraint=eastwest;fontSize=12;" vertex="1" parent="jTHDJD86nA3Bd8Cu8bMh-45">
          <mxGeometry y="78" width="200" height="26" as="geometry" />
        </mxCell>
        <mxCell id="jTHDJD86nA3Bd8Cu8bMh-49" value="what: varchar(title/body)" style="text;strokeColor=none;fillColor=none;spacingLeft=4;spacingRight=4;overflow=hidden;rotatable=0;points=[[0,0.5],[1,0.5]];portConstraint=eastwest;fontSize=12;" vertex="1" parent="jTHDJD86nA3Bd8Cu8bMh-45">
          <mxGeometry y="104" width="200" height="26" as="geometry" />
        </mxCell>
        <mxCell id="jTHDJD86nA3Bd8Cu8bMh-50" value="sen: int4" style="text;strokeColor=none;fillColor=none;spacingLeft=4;spacingRight=4;overflow=hidden;rotatable=0;points=[[0,0.5],[1,0.5]];portConstraint=eastwest;fontSize=12;" vertex="1" parent="jTHDJD86nA3Bd8Cu8bMh-45">
          <mxGeometry y="130" width="200" height="26" as="geometry" />
        </mxCell>
        <mxCell id="jTHDJD86nA3Bd8Cu8bMh-51" value="pos: varchar" style="text;strokeColor=none;fillColor=none;spacingLeft=4;spacingRight=4;overflow=hidden;rotatable=0;points=[[0,0.5],[1,0.5]];portConstraint=eastwest;fontSize=12;" vertex="1" parent="jTHDJD86nA3Bd8Cu8bMh-45">
          <mxGeometry y="156" width="200" height="26" as="geometry" />
        </mxCell>
        <mxCell id="jTHDJD86nA3Bd8Cu8bMh-52" value="lemma: varchar" style="text;strokeColor=none;fillColor=none;spacingLeft=4;spacingRight=4;overflow=hidden;rotatable=0;points=[[0,0.5],[1,0.5]];portConstraint=eastwest;fontSize=12;" vertex="1" parent="jTHDJD86nA3Bd8Cu8bMh-45">
          <mxGeometry y="182" width="200" height="26" as="geometry" />
        </mxCell>
        <mxCell id="jTHDJD86nA3Bd8Cu8bMh-53" value="inverted_index" style="swimlane;fontStyle=0;childLayout=stackLayout;horizontal=1;startSize=26;fillColor=#e0e0e0;horizontalStack=0;resizeParent=1;resizeParentMax=0;resizeLast=0;collapsible=1;marginBottom=0;swimlaneFillColor=#ffffff;align=center;fontSize=14;" vertex="1" parent="1">
          <mxGeometry x="510" y="800" width="140" height="104" as="geometry" />
        </mxCell>
        <mxCell id="jTHDJD86nA3Bd8Cu8bMh-54" value="word: varchar" style="text;strokeColor=none;fillColor=none;spacingLeft=4;spacingRight=4;overflow=hidden;rotatable=0;points=[[0,0.5],[1,0.5]];portConstraint=eastwest;fontSize=12;" vertex="1" parent="jTHDJD86nA3Bd8Cu8bMh-53">
          <mxGeometry y="26" width="140" height="26" as="geometry" />
        </mxCell>
        <mxCell id="jTHDJD86nA3Bd8Cu8bMh-55" value="postid: int4" style="text;strokeColor=none;fillColor=none;spacingLeft=4;spacingRight=4;overflow=hidden;rotatable=0;points=[[0,0.5],[1,0.5]];portConstraint=eastwest;fontSize=12;" vertex="1" parent="jTHDJD86nA3Bd8Cu8bMh-53">
          <mxGeometry y="52" width="140" height="26" as="geometry" />
        </mxCell>
        <mxCell id="jTHDJD86nA3Bd8Cu8bMh-56" value="tfidf: float" style="text;strokeColor=none;fillColor=none;spacingLeft=4;spacingRight=4;overflow=hidden;rotatable=0;points=[[0,0.5],[1,0.5]];portConstraint=eastwest;fontSize=12;" vertex="1" parent="jTHDJD86nA3Bd8Cu8bMh-53">
          <mxGeometry y="78" width="140" height="26" as="geometry" />
        </mxCell>
        <mxCell id="jTHDJD86nA3Bd8Cu8bMh-57" style="edgeStyle=none;shape=link;rounded=0;orthogonalLoop=1;jettySize=auto;html=1;exitX=0.5;exitY=1;exitDx=0;exitDy=0;entryX=0.5;entryY=0;entryDx=0;entryDy=0;" edge="1" parent="1" source="jTHDJD86nA3Bd8Cu8bMh-59" target="jTHDJD86nA3Bd8Cu8bMh-40">
          <mxGeometry relative="1" as="geometry" />
        </mxCell>
        <mxCell id="jTHDJD86nA3Bd8Cu8bMh-58" style="edgeStyle=none;rounded=0;orthogonalLoop=1;jettySize=auto;html=1;exitX=0.5;exitY=0;exitDx=0;exitDy=0;" edge="1" parent="1" source="jTHDJD86nA3Bd8Cu8bMh-59">
          <mxGeometry relative="1" as="geometry">
            <mxPoint x="830" y="431" as="targetPoint" />
          </mxGeometry>
        </mxCell>
        <mxCell id="jTHDJD86nA3Bd8Cu8bMh-59" value="searches" style="rhombus;whiteSpace=wrap;html=1;" vertex="1" parent="1">
          <mxGeometry x="790" y="456" width="80" height="50" as="geometry" />
        </mxCell>
        <mxCell id="jTHDJD86nA3Bd8Cu8bMh-60" style="edgeStyle=none;shape=link;rounded=0;orthogonalLoop=1;jettySize=auto;html=1;exitX=1;exitY=0.5;exitDx=0;exitDy=0;entryX=0.011;entryY=-0.05;entryDx=0;entryDy=0;entryPerimeter=0;" edge="1" parent="1" source="jTHDJD86nA3Bd8Cu8bMh-62" target="jTHDJD86nA3Bd8Cu8bMh-44">
          <mxGeometry relative="1" as="geometry" />
        </mxCell>
        <mxCell id="jTHDJD86nA3Bd8Cu8bMh-61" style="edgeStyle=none;rounded=0;orthogonalLoop=1;jettySize=auto;html=1;exitX=0;exitY=0.5;exitDx=0;exitDy=0;entryX=0.993;entryY=0.072;entryDx=0;entryDy=0;entryPerimeter=0;" edge="1" parent="1" source="jTHDJD86nA3Bd8Cu8bMh-62" target="jTHDJD86nA3Bd8Cu8bMh-46">
          <mxGeometry relative="1" as="geometry" />
        </mxCell>
        <mxCell id="jTHDJD86nA3Bd8Cu8bMh-62" value="is" style="rhombus;whiteSpace=wrap;html=1;" vertex="1" parent="1">
          <mxGeometry x="350" y="692" width="80" height="50" as="geometry" />
        </mxCell>
        <mxCell id="jTHDJD86nA3Bd8Cu8bMh-63" style="edgeStyle=none;rounded=0;orthogonalLoop=1;jettySize=auto;html=1;exitX=0;exitY=0.5;exitDx=0;exitDy=0;entryX=1;entryY=0.5;entryDx=0;entryDy=0;shape=link;" edge="1" parent="1" source="jTHDJD86nA3Bd8Cu8bMh-65" target="jTHDJD86nA3Bd8Cu8bMh-6">
          <mxGeometry relative="1" as="geometry" />
        </mxCell>
        <mxCell id="jTHDJD86nA3Bd8Cu8bMh-64" style="edgeStyle=none;rounded=0;orthogonalLoop=1;jettySize=auto;html=1;exitX=1;exitY=0.5;exitDx=0;exitDy=0;entryX=0.5;entryY=0;entryDx=0;entryDy=0;" edge="1" parent="1" source="jTHDJD86nA3Bd8Cu8bMh-65" target="jTHDJD86nA3Bd8Cu8bMh-23">
          <mxGeometry relative="1" as="geometry" />
        </mxCell>
        <mxCell id="jTHDJD86nA3Bd8Cu8bMh-65" value="owned_by" style="rhombus;whiteSpace=wrap;html=1;" vertex="1" parent="1">
          <mxGeometry x="430" y="196" width="80" height="50" as="geometry" />
        </mxCell>
        <mxCell id="jTHDJD86nA3Bd8Cu8bMh-66" value="linkpostid" style="rounded=0;orthogonalLoop=1;jettySize=auto;html=1;exitX=0;exitY=0;exitDx=0;exitDy=0;entryX=0.36;entryY=1.122;entryDx=0;entryDy=0;entryPerimeter=0;endArrow=none;endFill=0;" edge="1" parent="1" source="jTHDJD86nA3Bd8Cu8bMh-68" target="jTHDJD86nA3Bd8Cu8bMh-18">
          <mxGeometry x="-0.0624" relative="1" as="geometry">
            <mxPoint x="47" y="430" as="targetPoint" />
            <mxPoint as="offset" />
          </mxGeometry>
        </mxCell>
        <mxCell id="jTHDJD86nA3Bd8Cu8bMh-67" value="questionid" style="edgeStyle=none;rounded=0;orthogonalLoop=1;jettySize=auto;html=1;exitX=1;exitY=0;exitDx=0;exitDy=0;entryX=0.646;entryY=1.122;entryDx=0;entryDy=0;entryPerimeter=0;endArrow=none;endFill=0;" edge="1" parent="1" source="jTHDJD86nA3Bd8Cu8bMh-68" target="jTHDJD86nA3Bd8Cu8bMh-18">
          <mxGeometry x="0.2263" relative="1" as="geometry">
            <Array as="points">
              <mxPoint x="90" y="470" />
            </Array>
            <mxPoint as="offset" />
          </mxGeometry>
        </mxCell>
        <mxCell id="jTHDJD86nA3Bd8Cu8bMh-68" value="linkpost" style="rhombus;whiteSpace=wrap;html=1;" vertex="1" parent="1">
          <mxGeometry x="29.06" y="490" width="80" height="50" as="geometry" />
        </mxCell>
        <mxCell id="jTHDJD86nA3Bd8Cu8bMh-69" style="edgeStyle=none;rounded=0;orthogonalLoop=1;jettySize=auto;html=1;exitX=0.5;exitY=0;exitDx=0;exitDy=0;entryX=0.493;entryY=1.054;entryDx=0;entryDy=0;entryPerimeter=0;" edge="1" parent="1" source="jTHDJD86nA3Bd8Cu8bMh-70" target="jTHDJD86nA3Bd8Cu8bMh-7">
          <mxGeometry relative="1" as="geometry" />
        </mxCell>
        <mxCell id="jTHDJD86nA3Bd8Cu8bMh-70" value="has" style="rhombus;whiteSpace=wrap;html=1;" vertex="1" parent="1">
          <mxGeometry x="200" y="370" width="80" height="50" as="geometry" />
        </mxCell>
        <mxCell id="jTHDJD86nA3Bd8Cu8bMh-71" style="edgeStyle=none;rounded=0;orthogonalLoop=1;jettySize=auto;html=1;exitX=0.5;exitY=1;exitDx=0;exitDy=0;entryX=0.5;entryY=0;entryDx=0;entryDy=0;" edge="1" parent="1" source="jTHDJD86nA3Bd8Cu8bMh-73" target="jTHDJD86nA3Bd8Cu8bMh-3">
          <mxGeometry relative="1" as="geometry" />
        </mxCell>
        <mxCell id="jTHDJD86nA3Bd8Cu8bMh-72" style="edgeStyle=none;rounded=0;orthogonalLoop=1;jettySize=auto;html=1;exitX=0.5;exitY=0;exitDx=0;exitDy=0;entryX=0.502;entryY=1.113;entryDx=0;entryDy=0;entryPerimeter=0;shape=link;" edge="1" parent="1" source="jTHDJD86nA3Bd8Cu8bMh-73" target="jTHDJD86nA3Bd8Cu8bMh-2">
          <mxGeometry relative="1" as="geometry" />
        </mxCell>
        <mxCell id="jTHDJD86nA3Bd8Cu8bMh-73" value="has" style="rhombus;whiteSpace=wrap;html=1;" vertex="1" parent="1">
          <mxGeometry x="200" y="40" width="80" height="50" as="geometry" />
        </mxCell>
        <mxCell id="jTHDJD86nA3Bd8Cu8bMh-74" style="edgeStyle=none;rounded=0;orthogonalLoop=1;jettySize=auto;html=1;exitX=1;exitY=0.5;exitDx=0;exitDy=0;entryX=0.472;entryY=1.072;entryDx=0;entryDy=0;entryPerimeter=0;" edge="1" parent="1" source="jTHDJD86nA3Bd8Cu8bMh-75" target="jTHDJD86nA3Bd8Cu8bMh-28">
          <mxGeometry relative="1" as="geometry" />
        </mxCell>
        <mxCell id="jTHDJD86nA3Bd8Cu8bMh-75" value="written_by" style="rhombus;whiteSpace=wrap;html=1;" vertex="1" parent="1">
          <mxGeometry x="430" y="496" width="80" height="50" as="geometry" />
        </mxCell>
        <mxCell id="jTHDJD86nA3Bd8Cu8bMh-76" style="edgeStyle=none;rounded=0;orthogonalLoop=1;jettySize=auto;html=1;exitX=0;exitY=0.5;exitDx=0;exitDy=0;entryX=0.999;entryY=0.231;entryDx=0;entryDy=0;entryPerimeter=0;" edge="1" parent="1" source="jTHDJD86nA3Bd8Cu8bMh-78" target="jTHDJD86nA3Bd8Cu8bMh-51">
          <mxGeometry relative="1" as="geometry" />
        </mxCell>
        <mxCell id="jTHDJD86nA3Bd8Cu8bMh-77" style="edgeStyle=none;rounded=0;orthogonalLoop=1;jettySize=auto;html=1;exitX=1;exitY=0.5;exitDx=0;exitDy=0;entryX=0.006;entryY=0;entryDx=0;entryDy=0;entryPerimeter=0;" edge="1" parent="1" source="jTHDJD86nA3Bd8Cu8bMh-78" target="jTHDJD86nA3Bd8Cu8bMh-55">
          <mxGeometry relative="1" as="geometry" />
        </mxCell>
        <mxCell id="jTHDJD86nA3Bd8Cu8bMh-78" value="is" style="rhombus;whiteSpace=wrap;html=1;" vertex="1" parent="1">
          <mxGeometry x="373.5" y="827" width="80" height="50" as="geometry" />
        </mxCell>
        <mxCell id="jTHDJD86nA3Bd8Cu8bMh-79" style="edgeStyle=none;shape=link;rounded=0;orthogonalLoop=1;jettySize=auto;html=1;exitX=0.5;exitY=0;exitDx=0;exitDy=0;entryX=0.498;entryY=1.158;entryDx=0;entryDy=0;entryPerimeter=0;" edge="1" parent="1" source="jTHDJD86nA3Bd8Cu8bMh-81" target="jTHDJD86nA3Bd8Cu8bMh-9">
          <mxGeometry relative="1" as="geometry" />
        </mxCell>
        <mxCell id="jTHDJD86nA3Bd8Cu8bMh-80" style="edgeStyle=none;rounded=0;orthogonalLoop=1;jettySize=auto;html=1;exitX=0.5;exitY=1;exitDx=0;exitDy=0;entryX=0.5;entryY=0;entryDx=0;entryDy=0;" edge="1" parent="1" source="jTHDJD86nA3Bd8Cu8bMh-81" target="jTHDJD86nA3Bd8Cu8bMh-29">
          <mxGeometry relative="1" as="geometry" />
        </mxCell>
        <mxCell id="jTHDJD86nA3Bd8Cu8bMh-81" value="creates" style="rhombus;whiteSpace=wrap;html=1;" vertex="1" parent="1">
          <mxGeometry x="790" y="220" width="80" height="50" as="geometry" />
        </mxCell>
        <mxCell id="jTHDJD86nA3Bd8Cu8bMh-82" style="edgeStyle=none;shape=link;rounded=0;orthogonalLoop=1;jettySize=auto;html=1;exitX=0.5;exitY=0;exitDx=0;exitDy=0;entryX=0.498;entryY=1.063;entryDx=0;entryDy=0;entryPerimeter=0;" edge="1" parent="1" source="jTHDJD86nA3Bd8Cu8bMh-84" target="jTHDJD86nA3Bd8Cu8bMh-12">
          <mxGeometry relative="1" as="geometry" />
        </mxCell>
        <mxCell id="jTHDJD86nA3Bd8Cu8bMh-83" style="edgeStyle=none;rounded=0;orthogonalLoop=1;jettySize=auto;html=1;exitX=0.5;exitY=1;exitDx=0;exitDy=0;entryX=0.5;entryY=0;entryDx=0;entryDy=0;" edge="1" parent="1" source="jTHDJD86nA3Bd8Cu8bMh-84" target="jTHDJD86nA3Bd8Cu8bMh-8">
          <mxGeometry relative="1" as="geometry" />
        </mxCell>
        <mxCell id="jTHDJD86nA3Bd8Cu8bMh-84" value="has" style="rhombus;whiteSpace=wrap;html=1;" vertex="1" parent="1">
          <mxGeometry x="790" y="50" width="80" height="50" as="geometry" />
        </mxCell>
        <mxCell id="jTHDJD86nA3Bd8Cu8bMh-85" style="edgeStyle=none;shape=link;rounded=0;orthogonalLoop=1;jettySize=auto;html=1;exitX=1;exitY=0.5;exitDx=0;exitDy=0;entryX=0;entryY=0.5;entryDx=0;entryDy=0;" edge="1" parent="1" source="jTHDJD86nA3Bd8Cu8bMh-37" target="jTHDJD86nA3Bd8Cu8bMh-75">
          <mxGeometry relative="1" as="geometry" />
        </mxCell>
        <mxCell id="jTHDJD86nA3Bd8Cu8bMh-86" style="edgeStyle=none;rounded=0;orthogonalLoop=1;jettySize=auto;html=1;exitX=0;exitY=0.5;exitDx=0;exitDy=0;entryX=1.015;entryY=-0.063;entryDx=0;entryDy=0;entryPerimeter=0;" edge="1" parent="1" source="jTHDJD86nA3Bd8Cu8bMh-88" target="jTHDJD86nA3Bd8Cu8bMh-4">
          <mxGeometry relative="1" as="geometry" />
        </mxCell>
        <mxCell id="jTHDJD86nA3Bd8Cu8bMh-87" style="edgeStyle=none;rounded=0;orthogonalLoop=1;jettySize=auto;html=1;exitX=1;exitY=0.5;exitDx=0;exitDy=0;entryX=0.044;entryY=0.027;entryDx=0;entryDy=0;entryPerimeter=0;shape=link;" edge="1" parent="1" source="jTHDJD86nA3Bd8Cu8bMh-88" target="jTHDJD86nA3Bd8Cu8bMh-9">
          <mxGeometry relative="1" as="geometry" />
        </mxCell>
        <mxCell id="jTHDJD86nA3Bd8Cu8bMh-88" value="has" style="rhombus;whiteSpace=wrap;html=1;" vertex="1" parent="1">
          <mxGeometry x="500" y="131" width="80" height="50" as="geometry" />
        </mxCell>
      </root>
    </mxGraphModel>
  </diagram>
</mxfile>
